<?xml version="1.0" encoding="UTF-8"?> <svg xmlns="http://www.w3.org/2000/svg" id="Layer_1" data-name="Layer 1" viewBox="0 0 164.8 49.84"><defs><style>.cls-1{fill:#161946;}.cls-2{fill:#181a45;}.cls-3{fill:#2aace2;}.cls-4{fill:#43c1c6;}</style></defs><title>origo-power-logo</title><path class="cls-1" d="M122.57,46.14v3.58h-.77v-8.8h3.11a3.32,3.32,0,0,1,2.24.7,2.4,2.4,0,0,1,.83,1.93,2.36,2.36,0,0,1-.8,1.91,3.42,3.42,0,0,1-2.29.68Zm0-.63h2.34a2.48,2.48,0,0,0,1.71-.52,1.8,1.8,0,0,0,.59-1.43,1.9,1.9,0,0,0-.59-1.46,2.4,2.4,0,0,0-1.66-.55h-2.39Z"></path><path class="cls-1" d="M136.43,45.8a4.91,4.91,0,0,1-.43,2.13,3.22,3.22,0,0,1-1.25,1.42,3.47,3.47,0,0,1-1.86.49,3.27,3.27,0,0,1-2.58-1.1,4.33,4.33,0,0,1-1-3v-.9a5,5,0,0,1,.44-2.14A3.27,3.27,0,0,1,131,41.3a3.72,3.72,0,0,1,3.71,0A3.28,3.28,0,0,1,136,42.67a4.86,4.86,0,0,1,.45,2.08Zm-.77-1a3.83,3.83,0,0,0-.74-2.49,2.74,2.74,0,0,0-4.07,0,3.83,3.83,0,0,0-.75,2.52v.92a3.8,3.8,0,0,0,.75,2.48,2.5,2.5,0,0,0,2,.92,2.47,2.47,0,0,0,2-.91,3.87,3.87,0,0,0,.73-2.51Z"></path><path class="cls-1" d="M140.06,47.35l.28,1.36.34-1.3,2-6.49h.69l2,6.49.34,1.32.3-1.38,1.64-6.43h.79l-2.33,8.8h-.74l-2.07-6.88L143,42l-.23.87-2.11,6.88h-.74l-2.33-8.8h.79Z"></path><path class="cls-1" d="M154.9,45.5h-4.27v3.59h4.9v.63h-5.67v-8.8h5.64v.63h-4.87v3.32h4.27Z"></path><path class="cls-1" d="M160.56,46.05h-2.65v3.67h-.77v-8.8h3a3.5,3.5,0,0,1,2.28.68,2.53,2.53,0,0,1,.3,3.4,2.67,2.67,0,0,1-1.37.9l2.27,3.74v.08h-.82Zm-2.65-.63h2.36a2.2,2.2,0,0,0,1.56-.53,1.77,1.77,0,0,0,.59-1.38,1.83,1.83,0,0,0-.61-1.45,2.64,2.64,0,0,0-1.73-.51h-2.17Z"></path><path class="cls-1" d="M79,23a14.62,14.62,0,0,1-1.42,6.56,10.34,10.34,0,0,1-4,4.4,11.64,11.64,0,0,1-6,1.54,11.79,11.79,0,0,1-6-1.49,10.26,10.26,0,0,1-4-4.26A14.07,14.07,0,0,1,56,23.36V21.93a14.63,14.63,0,0,1,1.41-6.57A10.27,10.27,0,0,1,61.49,11a12.36,12.36,0,0,1,11.95,0,10.51,10.51,0,0,1,4.06,4.36A14.12,14.12,0,0,1,79,21.79ZM72.54,21.9a10.39,10.39,0,0,0-1.31-5.74,4.22,4.22,0,0,0-3.74-1.95c-3.17,0-4.84,2.29-5,6.89l0,1.86a10.62,10.62,0,0,0,1.28,5.73,4.22,4.22,0,0,0,3.8,2,4.16,4.16,0,0,0,3.69-2,10.31,10.31,0,0,0,1.32-5.66Z"></path><path class="cls-1" d="M92,26.14H88.55v9H82.23V9.77H92.55c3.11,0,5.55.66,7.3,2a6.68,6.68,0,0,1,2.63,5.65,8,8,0,0,1-1.11,4.38,7.78,7.78,0,0,1-3.47,2.82l5.48,10.23v.26H96.61Zm-3.43-4.69h4a3.7,3.7,0,0,0,2.72-.92,3.49,3.49,0,0,0,.9-2.56,3.51,3.51,0,0,0-.91-2.57,3.67,3.67,0,0,0-2.71-.93h-4Z"></path><path class="cls-1" d="M113,35.11h-6.31V9.77H113Z"></path><path class="cls-1" d="M138.91,32a10.29,10.29,0,0,1-4.27,2.52,19,19,0,0,1-6.16,1,11.22,11.22,0,0,1-8.24-3.05q-3.08-3-3.29-8.48l0-2.19a14.71,14.71,0,0,1,1.37-6.53,9.86,9.86,0,0,1,3.92-4.3,11.31,11.31,0,0,1,5.9-1.51q4.89,0,7.61,2.17A9,9,0,0,1,138.89,18H132.8a4.74,4.74,0,0,0-1.4-3,4.63,4.63,0,0,0-3.07-.91,4.15,4.15,0,0,0-3.67,2,10.07,10.07,0,0,0-1.32,5.57v1.53a9.87,9.87,0,0,0,1.35,5.7,4.8,4.8,0,0,0,4.22,1.91,5.45,5.45,0,0,0,3.67-1.06V25.76h-4.39V21.57h10.72Z"></path><path class="cls-1" d="M164.8,23a14.49,14.49,0,0,1-1.43,6.56,10.26,10.26,0,0,1-4,4.4,11.64,11.64,0,0,1-6,1.54,11.76,11.76,0,0,1-6-1.49,10.2,10.2,0,0,1-4-4.26,13.94,13.94,0,0,1-1.52-6.35V21.93a14.63,14.63,0,0,1,1.41-6.57A10.25,10.25,0,0,1,147.31,11a11.7,11.7,0,0,1,6-1.55,11.56,11.56,0,0,1,6,1.53,10.51,10.51,0,0,1,4.06,4.36,14.12,14.12,0,0,1,1.47,6.48Zm-6.43-1.06a10.39,10.39,0,0,0-1.31-5.74,4.24,4.24,0,0,0-3.74-1.95c-3.17,0-4.84,2.29-5,6.89V23a10.62,10.62,0,0,0,1.28,5.73,4.22,4.22,0,0,0,3.8,2,4.17,4.17,0,0,0,3.69-2,10.4,10.4,0,0,0,1.32-5.66Z"></path><path class="cls-2" d="M10.53,15.87,4.78,10.11A24.46,24.46,0,0,0,.29,20.92H8.43A16.82,16.82,0,0,1,10.53,15.87Z"></path><path class="cls-2" d="M20.92,8.43V.29A24.46,24.46,0,0,0,10.11,4.78l5.75,5.76A16.75,16.75,0,0,1,20.92,8.43Z"></path><path class="cls-2" d="M39.27,4.78A24.41,24.41,0,0,0,28.46.29V8.43a16.64,16.64,0,0,1,5.06,2.11Z"></path><path class="cls-2" d="M10.11,44.61A24.74,24.74,0,0,0,20.92,49.1V41a16.67,16.67,0,0,1-5.05-2.1Z"></path><path class="cls-2" d="M8.44,28.46H.29A24.53,24.53,0,0,0,4.78,39.27l5.76-5.75A16.37,16.37,0,0,1,8.44,28.46Z"></path><path class="cls-2" d="M28.46,41V49.1a24.69,24.69,0,0,0,10.81-4.49l-5.75-5.76A16.62,16.62,0,0,1,28.46,41Z"></path><path class="cls-2" d="M38.85,33.52l5.75,5.75a24.54,24.54,0,0,0,4.5-10.81H41A16.62,16.62,0,0,1,38.85,33.52Z"></path><path class="cls-2" d="M38.85,15.87A16.56,16.56,0,0,1,41,20.92H49.1a24.59,24.59,0,0,0-4.5-10.81Z"></path><path class="cls-3" d="M15.73,10.62,10,4.87A24.85,24.85,0,0,0,4.87,10l5.75,5.75A16.75,16.75,0,0,1,15.73,10.62Z"></path><path class="cls-3" d="M10.62,33.65,4.87,39.4A25.1,25.1,0,0,0,10,44.52l5.75-5.75A16.78,16.78,0,0,1,10.62,33.65Z"></path><path class="cls-3" d="M38.77,15.74,44.51,10A24.8,24.8,0,0,0,39.4,4.87l-5.75,5.75A16.78,16.78,0,0,1,38.77,15.74Z"></path><path class="cls-3" d="M33.65,38.77l5.75,5.75a25,25,0,0,0,5.11-5.12l-5.75-5.75A16.86,16.86,0,0,1,33.65,38.77Z"></path><path class="cls-4" d="M8,24.69a16.5,16.5,0,0,1,.4-3.61H.27a24.34,24.34,0,0,0,0,7.23H8.4A16.66,16.66,0,0,1,8,24.69Z"></path><path class="cls-4" d="M28.31,8.4V.27a24.34,24.34,0,0,0-7.23,0V8.4a16.54,16.54,0,0,1,7.23,0Z"></path><path class="cls-4" d="M41.38,24.69a16.66,16.66,0,0,1-.4,3.62h8.14a25.26,25.26,0,0,0,0-7.23H41A16.5,16.5,0,0,1,41.38,24.69Z"></path><path class="cls-4" d="M21.08,41v8.14a25.26,25.26,0,0,0,7.23,0V41a16.54,16.54,0,0,1-7.23,0Z"></path><path class="cls-3" d="M24.69,16.41A8.29,8.29,0,1,0,33,24.69,8.28,8.28,0,0,0,24.69,16.41Z"></path></svg> 